<svg xmlns="http://www.w3.org/2000/svg" xmlns:xlink="http://www.w3.org/1999/xlink" width="500" zoomAndPan="magnify" viewBox="0 0 375 374.999991" height="500" preserveAspectRatio="xMidYMid meet" version="1.0"><defs><clipPath id="6550eec384"><path d="M 74.597656 70.96875 L 312 70.96875 L 312 296.207031 L 74.597656 296.207031 Z M 74.597656 70.96875 " clip-rule="nonzero"/></clipPath><clipPath id="2277051ef0"><path d="M 193.078125 70.96875 C 127.640625 70.96875 74.597656 121.390625 74.597656 183.585938 C 74.597656 245.785156 127.640625 296.207031 193.078125 296.207031 C 258.511719 296.207031 311.554688 245.785156 311.554688 183.585938 C 311.554688 121.390625 258.511719 70.96875 193.078125 70.96875 Z M 193.078125 70.96875 " clip-rule="nonzero"/></clipPath><clipPath id="e8fbe3a969"><path d="M 113 109.683594 L 262 109.683594 L 262 200 L 113 200 Z M 113 109.683594 " clip-rule="nonzero"/></clipPath><clipPath id="edacf54585"><path d="M 162 162 L 171 162 L 171 256.855469 L 162 256.855469 Z M 162 162 " clip-rule="nonzero"/></clipPath><clipPath id="57732b1300"><path d="M 204 162 L 213 162 L 213 256.855469 L 204 256.855469 Z M 204 162 " clip-rule="nonzero"/></clipPath></defs><g clip-path="url(#6550eec384)"><g clip-path="url(#2277051ef0)"><path fill="#f2f2f2" d="M 74.597656 70.96875 L 311.273438 70.96875 L 311.273438 296.207031 L 74.597656 296.207031 Z M 74.597656 70.96875 " fill-opacity="1" fill-rule="nonzero"/></g></g><g clip-path="url(#e8fbe3a969)"><path fill="#676f9d" d="M 221.019531 137.082031 C 221.730469 121.960938 209.691406 109.828125 195.0625 109.828125 C 187.152344 109.828125 180.074219 113.375 175.300781 118.949219 C 161.367188 113.246094 145.820312 121.515625 142.535156 135.988281 C 126.425781 137.425781 113.789062 150.945312 113.789062 167.429688 C 113.789062 184.875 127.929688 199.015625 145.371094 199.015625 C 162.816406 199.015625 212.253906 199.015625 229.695312 199.015625 C 247.140625 199.015625 261.28125 184.875 261.28125 167.429688 C 261.28125 146.613281 241.375 131.273438 221.019531 137.082031 Z M 221.019531 137.082031 " fill-opacity="1" fill-rule="nonzero"/></g><path fill="#2d3250" d="M 229.699219 199.023438 L 145.382812 199.023438 C 135.488281 199.023438 126.636719 194.472656 120.859375 187.34375 C 132.25 196.609375 134.328125 194.414062 225.089844 194.414062 C 251.773438 194.414062 266.261719 163.378906 249.613281 142.914062 C 272.441406 161.414062 259.59375 199.023438 229.699219 199.023438 Z M 229.699219 199.023438 " fill-opacity="1" fill-rule="nonzero"/><path fill="#676f9d" d="M 170.199219 127.375 C 170.378906 127.636719 170.496094 127.933594 170.558594 128.269531 C 170.617188 128.605469 170.617188 128.972656 170.558594 129.367188 C 170.496094 129.765625 170.375 130.183594 170.195312 130.628906 C 170.015625 131.070312 169.78125 131.527344 169.488281 132 C 169.199219 132.46875 168.855469 132.945312 168.464844 133.429688 C 168.070312 133.910156 167.636719 134.390625 167.15625 134.867188 C 166.679688 135.339844 166.167969 135.800781 165.625 136.25 C 165.078125 136.699219 164.507812 137.125 163.917969 137.53125 C 163.328125 137.9375 162.722656 138.3125 162.109375 138.660156 C 161.492188 139.007812 160.878906 139.320312 160.261719 139.59375 C 159.648438 139.867188 159.042969 140.101562 158.453125 140.292969 C 157.863281 140.484375 157.292969 140.632812 156.75 140.734375 C 156.203125 140.835938 155.691406 140.890625 155.214844 140.902344 C 154.738281 140.910156 154.300781 140.871094 153.910156 140.785156 C 153.519531 140.699219 153.175781 140.566406 152.886719 140.390625 C 152.59375 140.210938 152.359375 139.992188 152.179688 139.730469 C 152 139.46875 151.882812 139.171875 151.820312 138.835938 C 151.761719 138.5 151.761719 138.136719 151.824219 137.738281 C 151.882812 137.339844 152.003906 136.921875 152.183594 136.480469 C 152.363281 136.035156 152.597656 135.578125 152.890625 135.109375 C 153.183594 134.636719 153.523438 134.160156 153.917969 133.675781 C 154.308594 133.195312 154.742188 132.714844 155.222656 132.242188 C 155.699219 131.765625 156.210938 131.304688 156.757812 130.855469 C 157.300781 130.40625 157.871094 129.980469 158.460938 129.574219 C 159.054688 129.167969 159.65625 128.792969 160.273438 128.445312 C 160.886719 128.097656 161.5 127.789062 162.117188 127.511719 C 162.730469 127.238281 163.335938 127.003906 163.925781 126.8125 C 164.519531 126.621094 165.085938 126.472656 165.632812 126.371094 C 166.175781 126.269531 166.6875 126.214844 167.164062 126.207031 C 167.640625 126.199219 168.078125 126.238281 168.46875 126.324219 C 168.859375 126.410156 169.203125 126.542969 169.492188 126.71875 C 169.785156 126.894531 170.019531 127.113281 170.199219 127.375 Z M 170.199219 127.375 " fill-opacity="1" fill-rule="nonzero"/><path fill="#f87979" d="M 165.585938 174.351562 L 209.488281 174.351562 L 209.488281 181.90625 L 165.585938 181.90625 Z M 165.585938 174.351562 " fill-opacity="1" fill-rule="nonzero"/><path fill="#f87979" d="M 165.585938 195.683594 L 209.488281 195.683594 L 209.488281 203.238281 L 165.585938 203.238281 Z M 165.585938 195.683594 " fill-opacity="1" fill-rule="nonzero"/><path fill="#f87979" d="M 165.585938 217.011719 L 209.488281 217.011719 L 209.488281 224.566406 L 165.585938 224.566406 Z M 165.585938 217.011719 " fill-opacity="1" fill-rule="nonzero"/><path fill="#f87979" d="M 165.585938 238.34375 L 209.488281 238.34375 L 209.488281 245.898438 L 165.585938 245.898438 Z M 165.585938 238.34375 " fill-opacity="1" fill-rule="nonzero"/><g clip-path="url(#edacf54585)"><path fill="#c45f5f" d="M 166.417969 162.601562 C 164.332031 162.601562 162.640625 164.289062 162.640625 166.375 L 162.640625 253.871094 C 162.640625 255.957031 164.332031 257.648438 166.417969 257.648438 C 168.503906 257.648438 170.195312 255.957031 170.195312 253.871094 L 170.195312 166.375 C 170.195312 164.289062 168.503906 162.601562 166.417969 162.601562 Z M 166.417969 162.601562 " fill-opacity="1" fill-rule="nonzero"/></g><g clip-path="url(#57732b1300)"><path fill="#c45f5f" d="M 208.660156 162.601562 C 206.574219 162.601562 204.882812 164.289062 204.882812 166.375 L 204.882812 253.871094 C 204.882812 255.957031 206.574219 257.648438 208.660156 257.648438 C 210.746094 257.648438 212.4375 255.957031 212.4375 253.871094 L 212.4375 166.375 C 212.4375 164.289062 210.742188 162.601562 208.660156 162.601562 Z M 208.660156 162.601562 " fill-opacity="1" fill-rule="nonzero"/></g></svg>